<?xml version="1.0" standalone="no"?>
<!DOCTYPE svg PUBLIC "-//W3C//DTD SVG 20010904//EN"
 "http://www.w3.org/TR/2001/REC-SVG-20010904/DTD/svg10.dtd">
<svg version="1.0" xmlns="http://www.w3.org/2000/svg"
 width="500.000000pt" height="500.000000pt" viewBox="0 0 500.000000 500.000000"
 preserveAspectRatio="xMidYMid meet">
<metadata>
Created by potrace 1.11, written by Peter Selinger 2001-2013
</metadata>
<g transform="translate(0.000000,500.000000) scale(0.100000,-0.100000)"
fill="#000000" stroke="none">
<path d="M0 2500 l0 -2490 2500 0 2500 0 0 2490 0 2490 -2500 0 -2500 0 0
-2490z m3454 1444 c217 -217 358 -486 413 -787 25 -138 22 -381 -6 -517 -29
-135 -70 -258 -122 -362 -44 -88 -128 -220 -178 -278 l-29 -35 -51 50 -51 49
0 202 0 201 44 94 c49 106 85 214 112 339 26 120 27 429 1 550 -41 193 -112
363 -216 520 -31 47 -60 92 -65 100 -16 25 68 -47 148 -126z m-1139 4 c6 -5
-867 -850 -883 -855 -4 -1 -96 85 -205 190 l-199 193 288 275 287 275 353 -36
c194 -19 356 -38 359 -42z m418 -406 c105 -46 164 -149 154 -269 l-5 -63 264
-252 264 -253 0 -326 0 -326 266 -254 265 -254 83 3 c96 4 156 -16 215 -71
166 -158 64 -433 -169 -454 -169 -16 -300 103 -300 273 l0 71 -130 127 -129
126 -369 0 -369 0 -282 271 -281 271 -88 2 c-127 3 -200 46 -252 149 -85 170
27 361 221 375 125 9 219 -39 273 -139 25 -45 30 -65 29 -119 -1 -36 -3 -73
-4 -82 -3 -12 75 -93 241 -252 l245 -235 188 -1 c103 0 187 2 187 4 0 3 -1377
1327 -1453 1396 l-38 35 88 87 88 87 609 -584 c335 -322 611 -585 613 -585 1
0 3 69 3 153 l0 154 -224 214 -225 214 -83 1 c-54 0 -96 6 -121 17 -106 46
-169 139 -169 248 0 195 210 323 395 241z m-336 -52 c-81 -90 -99 -208 -48
-313 21 -43 22 -50 9 -63 -13 -13 -29 -1 -132 98 l-117 113 15 43 c9 24 19 72
22 108 l7 64 144 0 145 0 -45 -50z m513 -25 c0 -81 -10 -94 -31 -42 -7 17 -33
51 -56 75 l-42 42 64 0 65 0 0 -75z m447 -57 c-3 -68 -13 -161 -22 -208 -18
-90 -81 -296 -93 -304 -4 -2 -62 49 -129 115 l-121 119 19 73 c10 39 24 129
31 200 l12 127 154 0 155 0 -6 -122z m-1308 -409 l113 -107 -46 -31 c-62 -43
-178 -97 -251 -117 -33 -9 -111 -18 -173 -21 l-113 -6 3 149 3 149 75 7 c86 9
191 39 235 67 17 11 33 19 36 18 3 -1 57 -50 118 -108z m472 35 c32 -11 71
-15 114 -12 64 4 65 3 101 -33 l37 -38 -41 -69 c-22 -38 -47 -73 -54 -79 -10
-8 -40 14 -127 96 -108 102 -113 108 -100 129 16 26 9 26 70 6z m473 -292 c58
-57 106 -107 106 -111 0 -13 -99 -146 -109 -146 -17 0 -222 207 -218 219 10
27 100 147 107 144 5 -2 56 -49 114 -106z m-629 -47 l110 -105 -35 -30 c-19
-16 -37 -30 -40 -30 -3 0 -17 20 -32 45 -44 72 -153 135 -236 135 -19 0 -12 8
40 44 34 24 68 44 73 45 6 0 60 -47 120 -104z m-473 -88 c-54 -58 -80 -165
-58 -247 8 -30 13 -57 11 -59 -2 -2 -63 -6 -135 -9 l-131 -5 3 154 3 154 115
7 c63 4 131 12 150 17 59 15 66 13 42 -12z m795 -220 c61 -60 103 -108 99
-115 -10 -17 -168 -133 -176 -130 -4 2 -53 47 -109 100 -80 77 -101 102 -96
117 5 18 150 131 168 131 5 0 56 -47 114 -103z m-711 -206 c18 -19 128 -41
174 -35 45 6 46 5 123 -66 42 -39 77 -75 77 -79 0 -9 -154 -65 -249 -91 -136
-36 -317 -55 -483 -51 l-38 1 0 148 0 149 138 7 c75 3 155 10 177 15 56 12 70
12 81 2z m1068 -299 c-109 -2 -161 1 -168 9 -8 8 -7 13 2 16 6 3 49 31 95 64
l82 59 73 -73 73 -72 -157 -3z m-1387 -146 c147 -37 243 -49 398 -49 185 0
314 20 512 79 18 5 38 -10 111 -80 l89 -86 149 0 149 -1 -58 -30 c-190 -98
-485 -156 -737 -146 -284 12 -547 92 -778 235 -97 60 -118 65 -106 25 12 -44
8 -73 -15 -104 -12 -15 -21 -35 -21 -43 0 -28 -50 -74 -103 -95 -51 -21 -59
-29 -140 -149 -94 -141 -167 -216 -245 -256 -82 -42 -167 -31 -221 28 -31 33
-40 115 -19 166 33 78 153 185 344 304 73 46 94 65 108 96 21 48 56 77 105 86
20 4 46 18 58 30 24 27 39 29 79 14 25 -10 31 -7 62 23 l34 34 73 -28 c41 -16
118 -40 172 -53z"/>
<path d="M2565 3410 c-44 -18 -70 -59 -70 -112 0 -43 4 -53 32 -79 43 -38 77
-45 127 -28 46 16 86 67 86 108 0 80 -99 143 -175 111z m133 -45 c56 -65 8
-165 -80 -165 -70 0 -71 4 -51 108 12 63 23 93 33 95 28 6 75 -12 98 -38z"/>
<path d="M2086 2540 c-37 -12 -66 -38 -82 -76 -29 -69 30 -154 107 -154 78 0
129 47 129 119 0 60 -38 100 -110 116 -8 2 -28 -1 -44 -5z m103 -35 c11 -9 25
-30 32 -47 15 -36 15 -36 -95 -79 -91 -35 -104 -31 -113 39 -5 38 -2 45 31 78
34 34 40 36 82 31 25 -2 53 -12 63 -22z"/>
<path d="M4000 1397 c-41 -14 -80 -68 -80 -109 0 -101 127 -155 204 -88 40 36
52 76 36 125 -20 62 -94 95 -160 72z"/>
</g>
</svg>
